<svg id="Réteg_1" data-name="Réteg 1" xmlns="http://www.w3.org/2000/svg" viewBox="0 0 72 72"><defs><style>.cls-1{fill:#02182b;}</style></defs><title>betyarvar_logo_kek</title><path class="cls-1" d="M14.85,64.49a.56.56,0,0,1-.25-.18Z"/><path class="cls-1" d="M36,.5A35.48,35.48,0,0,0,7.56,57.22a0,0,0,0,1,0,0l.16.2s0,0,0,0A35.51,35.51,0,0,0,14.6,64.3h0l.25.18A35.17,35.17,0,0,0,25.75,70a.57.57,0,0,0,.23.08,35.58,35.58,0,0,0,20,0,.57.57,0,0,0,.23-.08,35.12,35.12,0,0,0,10.89-5.49h0a1.15,1.15,0,0,1,.19-.14l0,0a35.51,35.51,0,0,0,6.85-6.84s0,0,0,0l.16-.2a0,0,0,0,1,0,0A35.48,35.48,0,0,0,36,.5ZM25.53,68.88a34.53,34.53,0,0,1-8.92-4.36h8.92ZM15.22,63.52a34.48,34.48,0,0,1-6.15-6H35.5v6Zm-6.62-7V47.46h8.93v9.08Zm22.93,0V47.46h8.94v9.08ZM45.47,69.18a34.63,34.63,0,0,1-18.94,0V64.52H45.47Zm1-.3V64.52h8.92A34.53,34.53,0,0,1,46.47,68.88Zm10.31-5.36H36.5v-6H62.93A34.48,34.48,0,0,1,56.78,63.52Zm6.62-7h-9V47.43h9Zm1-1V46.93a.5.5,0,0,0-.5-.5h-10a.5.5,0,0,0-.5.5v9.61h-12V47a.5.5,0,0,0-.5-.5H36.5V19.25a20,20,0,0,0,12.8-5.82.47.47,0,0,0,.11-.54.5.5,0,0,0-.46-.31A19,19,0,0,1,36.33,7.79a.49.49,0,0,0-.54-.09.51.51,0,0,0-.29.46V27.8a.47.47,0,0,1,0,.4V46.46H31a.5.5,0,0,0-.5.5v9.58h-12V47a.5.5,0,0,0-.5-.5H8.1a.5.5,0,0,0-.5.5v8.6A34.49,34.49,0,1,1,70.5,36,34.26,34.26,0,0,1,64.4,55.56ZM36.5,18.24v-9a20,20,0,0,0,11.23,4.31A19,19,0,0,1,36.5,18.24Z"/><path class="cls-1" d="M57.37,64.34a.43.43,0,0,1-.1.09l-.09,0A1.15,1.15,0,0,1,57.37,64.34Z"/><path class="cls-1" d="M14.85,64.49a.56.56,0,0,1-.25-.18Z"/><path class="cls-1" d="M57.37,64.34a.43.43,0,0,1-.1.09l-.09,0A1.15,1.15,0,0,1,57.37,64.34Z"/><path class="cls-1" d="M35.5,27.8v.4A.47.47,0,0,0,35.5,27.8Zm.4,19.66h0Z"/><path class="cls-1" d="M56.62,25.16l-.15.38-.06.17,0-.12,0-.14.06-.34Z"/><path class="cls-1" d="M56.35,26a1.18,1.18,0,0,0,0,.2l0,0Z"/><path class="cls-1" d="M55.45,25.43a1.16,1.16,0,0,0,0,.18h0A.84.84,0,0,0,55.45,25.43Z"/><path class="cls-1" d="M56.4,25.6h0a1.16,1.16,0,0,1,0-.18A.84.84,0,0,1,56.4,25.6Zm1.13-.49-.06.34,0,.14,0,.12.06-.17.15-.38Zm-.22,1.05a1.18,1.18,0,0,1,0-.2l-.06.18Z"/><path class="cls-1" d="M62.16,31.56a10.34,10.34,0,0,0-4.54-6.4l-.15.38-.06.17,0-.12,0-.14.06-.34.09.05A4.55,4.55,0,0,1,60,22.87a.49.49,0,0,0,.27-.65.49.49,0,0,0-.65-.27,5.24,5.24,0,0,0-2,1.41,9.16,9.16,0,0,0-.52-2.73.49.49,0,0,0-.64-.3.5.5,0,0,0-.3.64,7.94,7.94,0,0,1,.42,3.6,10.53,10.53,0,0,0-14.21,5.1v0a10.38,10.38,0,0,0-.92,4.3,10.49,10.49,0,0,0,20,4.51,1.51,1.51,0,0,0,.3,0,3.5,3.5,0,0,0,.44-7Zm-4.87-5.42.06-.18a1.18,1.18,0,0,0,0,.2,9.47,9.47,0,0,1,3.82,5.33A4.51,4.51,0,0,1,57.22,27a4.14,4.14,0,0,1,.09-.87ZM52,24.5a9.49,9.49,0,0,1,4.45,1.1.84.84,0,0,0,.05-.17,1.16,1.16,0,0,0,0,.18h0a7.58,7.58,0,0,1-1,2.4,8,8,0,0,1-11,2.4,9.55,9.55,0,0,1-.86-.64A9.49,9.49,0,0,1,52,24.5Zm9.38,11c0,.13,0,.25-.07.37a8.8,8.8,0,0,1-.55,1.81l0,.07A9.5,9.5,0,0,1,42.45,34,9.17,9.17,0,0,1,43,30.71a8.5,8.5,0,0,0,.74.53,8.89,8.89,0,0,0,4.85,1.43,9,9,0,0,0,7.58-4.13c.06-.09.11-.18.16-.27a5.51,5.51,0,0,0,5,4.24A8.33,8.33,0,0,1,61.45,34,9.64,9.64,0,0,1,61.33,35.52Zm.52,2h0a8.34,8.34,0,0,0,.26-.85,7.43,7.43,0,0,0,.17-.79l0-.14c0-.28.08-.56.1-.84s0-.6,0-.9a10.93,10.93,0,0,0-.09-1.39,2.5,2.5,0,0,1-.51,4.92Z"/><path class="cls-1" d="M51,39a2,2,0,0,1-2-2,.5.5,0,0,1,.5-.5.51.51,0,0,1,.5.5,1,1,0,0,0,2,0,.5.5,0,0,1,.5-.5.51.51,0,0,1,.5.5A2,2,0,0,1,51,39Z"/><circle class="cls-1" cx="56.44" cy="35.5" r="1"/><circle class="cls-1" cx="45.47" cy="35.5" r="1"/><path class="cls-1" d="M21,39a2,2,0,0,1-2-2,.51.51,0,0,1,.5-.5.5.5,0,0,1,.5.5,1,1,0,0,0,2,0,.51.51,0,0,1,.5-.5.5.5,0,0,1,.5.5A2,2,0,0,1,21,39Z"/><circle class="cls-1" cx="15.56" cy="35.5" r="1"/><circle class="cls-1" cx="26.53" cy="35.5" r="1"/><path class="cls-1" d="M34.48,27.75l-3-5.19a.52.52,0,0,0-.87,0L28,27.12a10.55,10.55,0,0,0-6.85-3.56H21a7.46,7.46,0,0,0-.95-.05,10.46,10.46,0,0,0-5.3,1.43l-.15.1a10,10,0,0,0-2.48,2.09l-3.64-6.3a.52.52,0,0,0-.86,0l-4,6.93a.5.5,0,0,0,0,.5.48.48,0,0,0,.43.25H11.1a10.3,10.3,0,0,0-1.26,3.06,3.5,3.5,0,0,0,.44,7,1.37,1.37,0,0,0,.29,0,10.5,10.5,0,0,0,19.05-8.84A8.21,8.21,0,0,0,29,28.5H34a.5.5,0,0,0,.44-.25.08.08,0,0,0,0-.05v-.4S34.49,27.77,34.48,27.75ZM7.78,35a2.52,2.52,0,0,1,1.86-2.42,1.64,1.64,0,0,0,0,.22A9.18,9.18,0,0,0,9.55,34c0,.3,0,.6,0,.9s.06.59.11.89v0c.05.26.1.52.17.78a1.05,1.05,0,0,0,.05.19q.08.3.18.6l.05.15A2.5,2.5,0,0,1,7.78,35ZM4.92,27.5l3.13-5.43,3.13,5.43Zm7.48.86a.44.44,0,0,0,.08-.11,9.32,9.32,0,0,1,2.77-2.45l.25-.14h0a9.55,9.55,0,0,1,4.55-1.15,3.39,3.39,0,0,1,.45,0,7.47,7.47,0,0,1-7.45,7H10.88A9.21,9.21,0,0,1,12.4,28.36ZM29.55,34a9.5,9.5,0,0,1-18.22,3.77l-.05-.1a9.67,9.67,0,0,1-.36-1q-.11-.37-.18-.75a9.3,9.3,0,0,1-.07-3.36h2.38a8.49,8.49,0,0,0,8-5.59,8.48,8.48,0,0,0,8,5.59h.44A9,9,0,0,1,29.55,34Zm-.33-2.48H29a7.47,7.47,0,0,1-7.44-6.91,9.56,9.56,0,0,1,6.07,3.63.44.44,0,0,0,.08.11,9.56,9.56,0,0,1,1,1.73A9,9,0,0,1,29.22,31.52Zm-.3-4,2.13-3.69,2.13,3.69Z"/><path class="cls-1" d="M35.5,27.8v.4A.47.47,0,0,0,35.5,27.8Z"/></svg>